<?xml version="1.0" standalone="no"?><!DOCTYPE svg PUBLIC "-//W3C//DTD SVG 1.1//EN" "http://www.w3.org/Graphics/SVG/1.1/DTD/svg11.dtd"><svg t="1547538324393" class="icon" style="" viewBox="0 0 1241 1024" version="1.1" xmlns="http://www.w3.org/2000/svg" p-id="2490" xmlns:xlink="http://www.w3.org/1999/xlink" width="242.3828125" height="200"><defs><style type="text/css"></style></defs><path d="M93.748021 697.634225c0 148.945455 90.900535 326.365775 526.785027 326.365775 434.789305 0 526.785027-177.420321 526.785027-326.365775a692.716834 692.716834 0 0 0-54.759358-266.130482c101.852406-175.229947 97.471658-277.082353 96.37647-288.034224l-1.095187-10.951872a31.574246 31.574246 0 0 0-27.379679-29.570053l-9.856685-2.190375a756.051508 756.051508 0 0 0-109.518716-7.66631c-70.091979 0-166.468449 9.856684-243.131551 56.949733a487.358289 487.358289 0 0 0-114.994652-24.094118 13.886973 13.886973 0 0 0-6.571123-1.095187c-15.33262-1.095187-29.570053-2.190374-44.902674-2.190374h-12.047059a550.243936 550.243936 0 0 0-155.516578 20.808556C347.831444 40.521925 160.554439 4.380749 151.792941 3.285561l-13.142246-2.190374c-2.190374 0-4.380749-1.095187-6.571123-1.095187a36.918759 36.918759 0 0 0-18.618182 5.475936 31.059508 31.059508 0 0 0-13.142246 21.903743l-2.190374 14.237433c-3.285561 17.522995-26.284492 177.420321 68.996791 352.650268a666.82661 666.82661 0 0 0-73.37754 303.366845z" fill="#2D2413" p-id="2491"></path><path d="M619.437861 991.144385c-323.080214 0-493.929412-101.852406-493.929412-293.51016a644.890011 644.890011 0 0 1 77.758289-304.462032 557.548834 557.548834 0 0 1-74.472727-346.079145l2.190374-14.237433 13.142246 2.190374c8.761497 1.095187 202.609626 39.426738 309.937968 144.564706a527.047872 527.047872 0 0 1 164.278075-25.189305 515.39508 515.39508 0 0 1 181.801069 31.760428c70.091979-49.283422 167.563636-60.235294 238.750802-60.235294a723.46969 723.46969 0 0 1 104.042781 7.66631l10.951872 2.190375 1.095187 10.951871c0 4.380749 7.66631 105.137968-100.757219 283.653476a639.863102 639.863102 0 0 1 59.140107 268.320856c0 190.562567-170.849198 292.414973-493.929412 292.414973z" fill="#A7A9AC" p-id="2492"></path><path d="M848.331979 595.781818m-76.663102 0a76.663102 76.663102 0 1 0 153.326203 0 76.663102 76.663102 0 1 0-153.326203 0Z" fill="#231F20" p-id="2493"></path><path d="M869.140535 579.354011m-36.141177 0a36.141176 36.141176 0 1 0 72.282353 0 36.141176 36.141176 0 1 0-72.282353 0Z" fill="#FFFFFF" p-id="2494"></path><path d="M432.160856 595.781818m-76.663102 0a76.663102 76.663102 0 1 0 153.326203 0 76.663102 76.663102 0 1 0-153.326203 0Z" fill="#231F20" p-id="2495"></path><path d="M452.969412 579.354011m-36.141177 0a36.141176 36.141176 0 1 0 72.282353 0 36.141176 36.141176 0 1 0-72.282353 0Z" fill="#FFFFFF" p-id="2496"></path><path d="M797.953369 833.437433c0 67.901604-70.091979 89.805348-157.706952 89.805348-86.519786 0-157.706952-21.903743-157.706952-89.805348s70.091979-156.611765 157.706952-156.611765c86.519786 0 157.706952 88.71016 157.706952 156.611765z" fill="#FFFFFF" p-id="2497"></path><path d="M682.958717 730.48984c0 24.094118-42.712299 42.712299-42.7123 42.712299s-42.712299-19.713369-42.712299-42.712299c0-24.094118 85.424599-24.094118 85.424599 0zM600.819679 869.57861l-30.66524-43.807487a9.41861 9.41861 0 1 1 15.33262-10.951872l24.094117 33.950802 91.995722-12.047058a9.922396 9.922396 0 1 1 2.190375 19.713369z" fill="#231F20" p-id="2498"></path><path d="M1236.028235 706.395722a4.019337 4.019337 0 0 1-3.285561-1.095187c-72.282353-41.617112-155.516578-26.284492-156.611765-26.284492a5.585455 5.585455 0 0 1-2.190374-10.951872 257.237561 257.237561 0 0 1 164.278075 27.379679c3.285561 1.095187 3.285561 5.475936 2.190374 7.66631 0 2.190374-2.190374 3.285561-4.380749 3.285562zM1199.887059 777.582888a8.301519 8.301519 0 0 1-4.380749-2.190375c-45.997861-49.283422-135.803209-56.949733-136.898396-56.949732a6.045433 6.045433 0 0 1 1.095188-12.047059c4.380749 0 95.281283 7.66631 144.564705 60.235294a5.289754 5.289754 0 0 1 0 7.66631c-2.190374 3.285561-3.285561 3.285561-4.380748 3.285562zM1156.079572 852.055615a6.023529 6.023529 0 0 1-5.475936-3.285562c-35.045989-61.330481-109.518717-73.37754-110.613903-73.37754a5.585455 5.585455 0 1 1 2.190374-10.951871c3.285561 0 81.04385 12.047059 118.280214 78.853476 1.095187 3.285561 1.095187 6.571123-2.190374 7.66631 0 1.095187-1.095187 1.095187-2.190375 1.095187z" fill="#231F20" p-id="2499"></path><path d="M6.133048 706.395722a6.023529 6.023529 0 0 1-5.475936-3.285562c-1.095187-3.285561-1.095187-6.571123 2.190375-7.66631a257.237561 257.237561 0 0 1 164.278074-27.379679c3.285561 1.095187 5.475936 3.285561 4.380749 6.571123s-3.285561 5.475936-6.571123 4.380749c-1.095187 0-84.329412-15.33262-156.611765 26.284492 0 1.095187-1.095187 1.095187-2.190374 1.095187zM42.274225 777.582888a6.571123 6.571123 0 0 1-4.380749-1.095187 5.289754 5.289754 0 0 1 0-7.666311c49.283422-52.568984 140.183957-60.235294 144.564706-60.235294a6.045433 6.045433 0 0 1 1.095187 12.047059c-1.095187 0-90.900535 7.66631-136.898396 56.949733zM86.081711 852.055615a4.019337 4.019337 0 0 1-3.285561-1.095187c-3.285561-1.095187-3.285561-5.475936-2.190375-7.66631 38.331551-66.806417 114.994652-78.853476 118.280214-78.853476s6.571123 2.190374 6.571123 4.380748c0 3.285561-2.190374 6.571123-4.380748 6.571123-1.095187 0-75.567914 12.047059-110.613904 73.37754 0 2.190374-2.190374 3.285561-4.380749 3.285562z" fill="#231F20" p-id="2500"></path><path d="M573.44 330.746524s-5.475936-113.899465-26.284492-167.563636a355.672984 355.672984 0 0 0-88.71016 33.950802c32.855615 27.379679 90.900535 78.853476 114.994652 133.612834zM801.23893 196.038503a319.652278 319.652278 0 0 0-90.900534-33.950802c-21.903743 53.664171-26.284492 168.658824-26.284492 168.658823 24.094118-55.854545 84.329412-108.423529 117.185026-134.708021zM673.102032 156.611765c-13.142246-1.095187-27.379679-2.190374-41.617112-2.190375-16.427807 0-31.760428 1.095187-45.997861 2.190375 28.474866 59.140107 43.807487 182.896257 43.807486 182.896256s15.33262-122.660963 43.807487-182.896256z" fill="#BBBDBF" p-id="2501"></path><path d="M388.353369 220.13262c-64.616043-70.091979-196.038503-95.281283-196.038503-95.281283s-7.66631 129.232086 55.854546 228.894118a346.93339 346.93339 0 0 1 140.183957-133.612835zM865.854973 239.845989c77.758289-85.424599 224.513369-45.997861 224.513369-45.997861s-6.571123 88.71016-70.091978 199.324065a446.442096 446.442096 0 0 0-154.421391-153.326204z" fill="#FFFFFF" p-id="2502"></path><path d="M964.421818 775.392513c-10.951872 35.045989-174.134759-16.427807-163.182888-50.378609 10.951872-35.045989 55.854545-51.473797 100.75722-37.236364 45.997861 13.142246 73.37754 53.664171 62.425668 87.614973zM319.356578 775.392513c10.951872 35.045989 174.134759-16.427807 163.182887-50.378609-10.951872-35.045989-55.854545-51.473797-100.757219-37.236364-45.997861 13.142246-73.37754 53.664171-62.425668 87.614973z" fill="#EF528B" p-id="2503"></path><path d="M238.312727 173.039572h16.427808c2.190374 0 6.571123 1.095187 9.856684 1.095187 3.285561 1.095187 6.571123 1.095187 10.951872 2.190375a152.154353 152.154353 0 0 1 20.808556 6.571123 172.174374 172.174374 0 0 1 44.902674 30.66524c1.095187 1.095187 1.095187 2.190374 0 2.190375-1.095187 1.095187-2.190374 1.095187-2.190374 0 0 0-5.475936-3.285561-14.237434-7.666311a129.111615 129.111615 0 0 0-32.855615-9.856684c-6.571123 0-12.047059-1.095187-17.522994-1.095187a13.886973 13.886973 0 0 0-6.571123 1.095187 16.274481 16.274481 0 0 0-6.571123 1.095187 143.162866 143.162866 0 0 1-15.332621 4.380749 15.945925 15.945925 0 0 1-8.761497-30.665241zM1006.03893 243.131551s-5.475936-3.285561-14.237433-8.761498c-2.190374-2.190374-3.285561-1.095187-5.475936-2.190374a15.56261 15.56261 0 0 0-6.571122-2.190374 71.384299 71.384299 0 0 0-17.522995-3.285562 122.660963 122.660963 0 0 0-35.045989 1.095187 87.834011 87.834011 0 0 0-16.427808 3.285562c-1.095187 0-2.190374 0-2.190374-1.095187s0-2.190374 1.095187-2.190375a167.23508 167.23508 0 0 1 51.473797-17.522994 139.658267 139.658267 0 0 1 20.808556-1.095187c3.285561 0 7.66631 1.095187 10.951871 1.095187 3.285561 1.095187 7.66631 1.095187 9.856685 2.190374 9.856684 3.285561 15.33262 5.475936 15.33262 5.475936a15.584513 15.584513 0 1 1-9.856684 29.570053c0-3.285561-1.095187-4.380749-2.190375-4.380748z" fill="#231F20" p-id="2504"></path><path d="M473.777968 413.980749s-8.761497-1.095187-20.808556-2.190375a8.991487 8.991487 0 0 0-7.66631 1.095187c-3.285561 0-5.475936 1.095187-8.761498 1.095188a31.979465 31.979465 0 0 0-9.856684 2.190374l-10.951872 3.285561c-6.571123 3.285561-14.237433 6.571123-20.808556 9.856685-6.571123 4.380749-13.142246 7.66631-17.522995 10.951872-9.856684 6.571123-16.427807 12.047059-16.427807 12.047058a2.321797 2.321797 0 0 1-3.285562-3.285561 116.768856 116.768856 0 0 1 13.142246-17.522995 196.115166 196.115166 0 0 1 15.332621-16.427807c5.475936-5.475936 13.142246-10.951872 19.713369-16.427808l10.951871-7.66631a65.415529 65.415529 0 0 1 12.047059-6.571123 61.735701 61.735701 0 0 1 13.142246-4.380748 101.326717 101.326717 0 0 1 10.951872-3.285562c12.047059-2.190374 20.808556-3.285561 20.808556-3.285561a19.987166 19.987166 0 0 1 6.571123 39.426737 19.275294 19.275294 0 0 1-6.571123 1.095188zM853.807914 400.838503s-8.761497 1.095187-20.808556 2.190374a20.30477 20.30477 0 0 0-7.66631 2.190374 75.458396 75.458396 0 0 1-8.761497 3.285562c-3.285561 1.095187-6.571123 3.285561-9.856685 4.380748l-9.856684 5.475936a119.550631 119.550631 0 0 0-18.618182 14.237433c-5.475936 5.475936-10.951872 9.856684-15.33262 14.237434a113.198545 113.198545 0 0 0-13.142246 15.33262 2.453219 2.453219 0 1 1-4.380749-2.190374s3.285561-7.66631 8.761497-19.713369c3.285561-5.475936 6.571123-12.047059 10.951872-18.618182s9.856684-13.142246 15.33262-20.808556l9.856685-9.856685a37.783957 37.783957 0 0 1 9.856684-8.761497 94.73369 94.73369 0 0 0 10.951872-7.66631 25.791658 25.791658 0 0 1 10.951872-5.475936c12.047059-4.380749 19.713369-7.66631 19.713369-7.66631a20.12954 20.12954 0 1 1 15.33262 37.236363c0 2.190374-1.095187 2.190374-3.285562 2.190375z" fill="#6E6F71" p-id="2505"></path></svg>